<?xml version="1.0" standalone="no"?>
<!DOCTYPE svg PUBLIC "-//W3C//DTD SVG 20010904//EN"
 "http://www.w3.org/TR/2001/REC-SVG-20010904/DTD/svg10.dtd">
<svg version="1.0" xmlns="http://www.w3.org/2000/svg"
 width="225.000000pt" height="225.000000pt" viewBox="0 0 225.000000 225.000000"
 preserveAspectRatio="xMidYMid meet">
<metadata>
Created by potrace 1.10, written by Peter Selinger 2001-2011
</metadata>
<g transform="translate(0.000000,225.000000) scale(0.100000,-0.100000)"
fill="#000000" stroke="none">
<path d="M1996 2141 l-109 -109 -51 28 c-163 91 -382 85 -546 -15 -53 -33
-399 -369 -390 -379 38 -41 766 -766 770 -766 15 0 361 361 383 400 93 164 95
396 3 545 l-25 40 112 112 112 113 -70 70 c-38 38 -72 70 -75 70 -3 0 -54 -49
-114 -109z m161 17 c18 -18 33 -38 33 -47 0 -8 -43 -58 -95 -112 -52 -54 -95
-105 -95 -114 0 -9 11 -37 24 -63 41 -81 57 -151 57 -247 -1 -103 -18 -174
-64 -255 -35 -62 -321 -360 -346 -360 -21 0 -711 690 -711 711 0 9 71 85 158
170 206 202 275 238 457 239 92 0 172 -18 246 -56 30 -15 60 -23 73 -20 11 3
61 46 111 96 49 49 96 90 104 90 8 0 30 -14 48 -32z"/>
<path d="M1450 1958 c-83 -30 -95 -38 -217 -160 -75 -74 -103 -108 -103 -126
0 -17 25 -51 83 -111 46 -47 139 -144 208 -215 127 -132 232 -226 251 -226 6
0 60 48 120 108 87 85 116 122 144 177 98 201 15 434 -191 536 -89 44 -201 50
-295 17z m273 -46 c65 -29 151 -113 184 -181 24 -49 28 -68 28 -151 0 -87 -3
-101 -32 -160 -23 -47 -61 -93 -132 -166 l-100 -100 -259 258 -258 258 106
104 c144 142 195 167 330 163 60 -3 99 -10 133 -25z"/>
<path d="M811 1325 c-52 -52 -96 -95 -100 -95 -3 0 -34 28 -68 62 l-63 63
-171 -170 c-178 -178 -223 -237 -259 -345 -45 -130 -26 -318 44 -435 l23 -40
-111 -113 -111 -112 73 -72 72 -73 112 112 113 112 40 -25 c116 -71 306 -89
443 -41 108 38 151 70 337 257 l170 170 -67 67 -67 68 92 89 c51 49 95 95 99
101 4 7 -19 37 -56 74 l-64 63 -98 -101 -98 -102 -128 128 -128 128 100 100
100 100 -63 63 c-34 34 -65 62 -68 62 -3 0 -47 -43 -98 -95z m127 19 c52 -36
49 -49 -31 -132 -92 -95 -99 -108 -82 -142 20 -37 249 -260 268 -260 9 0 56
39 106 86 79 75 92 84 110 74 12 -6 28 -22 38 -36 16 -25 16 -26 -59 -102 -42
-42 -80 -86 -86 -97 -13 -25 3 -57 52 -104 20 -19 36 -42 36 -51 0 -22 -283
-299 -345 -337 -151 -94 -351 -101 -517 -17 -26 13 -55 24 -64 24 -9 0 -63
-46 -121 -102 l-104 -101 -40 39 c-21 21 -39 45 -39 53 0 8 43 58 95 112 52
53 95 101 95 106 0 5 -16 46 -35 91 -50 114 -63 214 -41 318 28 138 61 190
234 367 86 86 163 157 172 157 9 0 29 -14 46 -31 16 -17 41 -40 56 -50 25 -18
30 -19 55 -5 15 8 59 46 98 85 38 39 72 71 75 71 3 0 16 -7 28 -16z"/>
<path d="M444 1008 c-66 -67 -119 -132 -133 -161 -96 -200 -8 -443 197 -540
61 -29 75 -32 167 -32 93 0 105 2 165 32 84 41 280 232 280 272 0 37 -503 541
-541 541 -20 0 -51 -26 -135 -112z m396 -173 l256 -256 -105 -104 c-66 -64
-127 -114 -161 -132 -50 -25 -65 -28 -155 -28 -89 0 -106 3 -156 27 -72 36
-141 105 -176 176 -25 50 -28 68 -28 152 0 134 23 181 157 317 56 56 104 103
107 103 3 0 121 -115 261 -255z"/>
</g>
</svg>
