<?xml version="1.0" standalone="no"?>
<!DOCTYPE svg PUBLIC "-//W3C//DTD SVG 20010904//EN"
 "http://www.w3.org/TR/2001/REC-SVG-20010904/DTD/svg10.dtd">
<svg version="1.0" xmlns="http://www.w3.org/2000/svg"
 width="300.000000pt" height="322.000000pt" viewBox="0 0 300.000000 322.000000"
 preserveAspectRatio="xMidYMid meet">
<metadata>
Created by potrace 1.10, written by Peter Selinger 2001-2011
</metadata>
<g transform="translate(0.000000,322.000000) scale(0.100000,-0.100000)"
fill="#000000" stroke="none">
<path d="M819 2341 c-24 -19 -24 -21 -23 -213 2 -231 2 -202 2 -438 0 -104 0
-200 0 -212 0 -13 -2 -102 -4 -198 -5 -191 -3 -211 26 -240 19 -19 34 -20 266
-20 l245 0 -3 -53 -3 -52 -130 -5 c-122 -5 -130 -6 -130 -25 0 -19 8 -20 133
-23 129 -3 133 -2 157 22 21 21 25 35 25 81 l0 55 40 0 39 0 3 -77 c3 -72 5
-78 25 -81 29 -4 38 29 29 104 l-6 54 45 0 45 0 0 -58 c0 -49 4 -62 24 -81 19
-18 33 -22 77 -19 46 3 54 6 54 23 0 17 -8 21 -50 25 l-50 5 -3 53 -3 52 240
0 c239 0 240 0 268 24 l28 24 -1 184 c-2 215 -2 207 -2 438 0 99 0 195 0 213
0 17 1 116 1 219 2 185 2 187 -22 212 l-24 26 -648 0 c-622 0 -648 -1 -670
-19z m1306 -221 l0 -185 -629 -3 c-379 -1 -634 2 -639 7 -10 10 -12 345 -2
361 4 7 223 9 638 8 l632 -3 0 -185z m0 -430 l0 -185 -629 -3 c-367 -1 -634 2
-639 7 -11 11 -13 343 -3 360 5 8 173 10 639 9 l632 -3 0 -185z m0 -430 l0
-185 -629 -3 c-366 -1 -634 2 -639 7 -11 11 -13 343 -3 359 5 9 165 12 639 10
l632 -3 0 -185z"/>
<path d="M954 2186 c-3 -8 -3 -20 1 -26 4 -7 129 -10 376 -10 l370 0 -3 23 -3
22 -368 3 c-315 2 -368 0 -373 -12z"/>
<path d="M1835 2175 c-50 -49 -15 -135 55 -135 19 0 40 9 55 25 16 15 25 36
25 55 0 19 -9 40 -25 55 -15 16 -36 25 -55 25 -19 0 -40 -9 -55 -25z m73 -37
c7 -7 12 -17 12 -24 0 -19 -32 -26 -48 -10 -13 12 -13 18 -2 30 15 19 22 20
38 4z"/>
<path d="M954 2075 c-4 -9 -2 -21 4 -27 16 -16 47 -5 47 17 0 26 -42 34 -51
10z"/>
<path d="M1063 2074 c-3 -8 -1 -20 5 -26 16 -16 42 -2 42 22 0 24 -38 28 -47
4z"/>
<path d="M1172 2068 c4 -30 43 -33 43 -3 0 13 -8 21 -23 23 -20 3 -23 0 -20
-20z"/>
<path d="M1276 2081 c-11 -18 6 -42 28 -39 29 4 29 42 -1 46 -11 2 -24 -1 -27
-7z"/>
<path d="M954 1756 c-3 -8 -3 -20 1 -26 4 -7 129 -10 376 -10 l370 0 -3 23 -3
22 -368 3 c-315 2 -368 0 -373 -12z"/>
<path d="M1835 1745 c-50 -49 -15 -135 55 -135 19 0 40 9 55 25 16 15 25 36
25 55 0 19 -9 40 -25 55 -15 16 -36 25 -55 25 -19 0 -40 -9 -55 -25z m79 -42
c4 -9 0 -23 -8 -31 -12 -13 -18 -13 -30 -2 -28 22 -17 47 20 49 7 1 15 -7 18
-16z"/>
<path d="M954 1645 c-8 -19 3 -35 26 -35 19 0 34 25 24 41 -8 14 -44 10 -50
-6z"/>
<path d="M1063 1644 c-3 -8 -1 -20 5 -26 16 -16 42 -2 42 22 0 24 -38 28 -47
4z"/>
<path d="M1172 1638 c2 -15 10 -23 23 -23 13 0 21 8 23 23 3 18 -1 22 -23 22
-22 0 -26 -4 -23 -22z"/>
<path d="M1276 1651 c-11 -18 6 -42 28 -39 29 4 29 42 -1 46 -11 2 -24 -1 -27
-7z"/>
<path d="M954 1326 c-3 -8 -3 -20 1 -26 4 -7 129 -10 376 -10 l370 0 -3 23 -3
22 -368 3 c-315 2 -368 0 -373 -12z"/>
<path d="M1835 1315 c-49 -48 -23 -120 47 -131 74 -12 117 77 63 131 -15 16
-36 25 -55 25 -19 0 -40 -9 -55 -25z m82 -41 c3 -8 -2 -23 -11 -32 -14 -15
-18 -15 -31 -1 -9 9 -13 23 -9 32 8 21 43 22 51 1z"/>
<path d="M960 1225 c-16 -19 -6 -45 19 -45 23 0 35 28 20 46 -15 18 -24 18
-39 -1z"/>
<path d="M1070 1225 c-16 -19 -5 -47 17 -43 22 4 29 43 9 51 -8 3 -20 -1 -26
-8z"/>
<path d="M1181 1230 c-19 -11 -9 -45 14 -45 13 0 21 8 23 21 3 23 -17 37 -37
24z"/>
<path d="M1287 1227 c-22 -16 -13 -47 14 -47 25 0 36 28 17 46 -11 12 -17 12
-31 1z"/>
</g>
</svg>
