<?xml version="1.0" standalone="no"?>
<!DOCTYPE svg PUBLIC "-//W3C//DTD SVG 20010904//EN"
 "http://www.w3.org/TR/2001/REC-SVG-20010904/DTD/svg10.dtd">
<svg version="1.0" xmlns="http://www.w3.org/2000/svg"
 width="300.000000pt" height="300.000000pt" viewBox="0 0 300.000000 300.000000"
 preserveAspectRatio="xMidYMid meet">
<metadata>
Created by potrace 1.10, written by Peter Selinger 2001-2011
</metadata>
<g transform="translate(0.000000,300.000000) scale(0.100000,-0.100000)"
fill="#000000" stroke="none">
<path d="M1893 2370 c-12 -5 -33 -26 -46 -47 -20 -30 -567 -976 -821 -1419
-54 -95 -57 -124 -17 -165 37 -37 88 -39 125 -6 20 18 816 1384 879 1508 23
46 15 80 -25 114 -31 26 -57 30 -95 15z m81 -62 c8 -13 7 -26 -1 -48 -10 -27
-778 -1364 -839 -1462 -26 -41 -54 -54 -84 -38 -46 25 -35 46 396 794 229 396
426 734 436 749 16 22 27 27 51 25 16 -2 35 -11 41 -20z"/>
<path d="M725 2102 c-16 -11 -144 -134 -283 -274 l-252 -255 0 -47 c0 -26 5
-56 10 -66 6 -11 128 -136 271 -280 251 -250 262 -260 299 -260 57 0 95 35 95
89 0 41 -5 46 -233 274 l-232 232 221 220 c121 121 227 233 235 248 42 79 -55
167 -131 119z m83 -44 c34 -34 16 -59 -193 -268 -221 -220 -251 -256 -239
-292 4 -13 105 -122 225 -244 175 -176 219 -226 219 -247 0 -31 -31 -52 -63
-43 -12 3 -136 119 -275 259 -243 244 -252 255 -252 293 0 37 9 48 258 296
263 264 285 281 320 246z"/>
<path d="M2200 2113 c-54 -20 -81 -83 -56 -130 8 -15 114 -127 235 -248 l221
-220 -224 -225 c-123 -124 -229 -235 -236 -248 -28 -56 21 -122 92 -122 38 0
47 7 196 159 409 414 382 383 382 430 0 23 -6 54 -14 69 -18 32 -502 515 -533
531 -23 12 -39 13 -63 4z m302 -290 c136 -135 252 -259 259 -275 6 -15 8 -40
4 -55 -8 -34 -489 -521 -522 -529 -11 -3 -31 -1 -43 6 -48 26 -27 56 200 290
118 122 219 229 223 236 5 8 5 24 1 37 -4 12 -105 121 -225 243 -223 224 -241
248 -207 282 34 34 57 17 310 -235z"/>
</g>
</svg>
