<?xml version="1.0" standalone="no"?>
<!DOCTYPE svg PUBLIC "-//W3C//DTD SVG 20010904//EN"
 "http://www.w3.org/TR/2001/REC-SVG-20010904/DTD/svg10.dtd">
<svg version="1.0" xmlns="http://www.w3.org/2000/svg"
 width="225.000000pt" height="225.000000pt" viewBox="0 0 225.000000 225.000000"
 preserveAspectRatio="xMidYMid meet">
<metadata>
Created by potrace 1.10, written by Peter Selinger 2001-2011
</metadata>
<g transform="translate(0.000000,225.000000) scale(0.100000,-0.100000)"
fill="#000000" stroke="none">
<path d="M900 2033 l0 -132 -29 -15 c-86 -45 -86 -177 0 -222 38 -19 88 -18
125 5 31 19 64 74 64 106 0 33 -34 88 -67 107 l-33 20 0 131 0 132 -30 0 -30
0 0 -132z m81 -214 c16 -16 20 -28 15 -52 -9 -43 -24 -57 -62 -57 -41 0 -64
22 -64 62 0 63 67 91 111 47z"/>
<path d="M1290 2031 l0 -129 -33 -21 c-109 -67 -63 -231 66 -231 47 0 98 37
116 84 21 54 0 112 -51 145 l-38 24 0 129 0 128 -30 0 -30 0 0 -129z m75 -205
c22 -16 26 -76 6 -100 -15 -18 -63 -21 -92 -6 -24 14 -26 76 -2 102 19 21 62
24 88 4z"/>
<path d="M413 1880 c-37 -22 -63 -67 -63 -107 0 -37 33 -90 70 -111 16 -9 29
-21 29 -27 -1 -5 -1 -53 0 -106 1 -82 4 -101 24 -130 38 -57 89 -79 183 -79
l81 0 0 30 0 30 -69 0 c-76 0 -131 18 -147 48 -6 12 -11 64 -11 117 l0 95 45
43 c41 40 45 48 45 91 0 43 -5 53 -39 87 -32 32 -46 39 -77 39 -22 0 -53 -9
-71 -20z m109 -57 c22 -20 24 -76 2 -97 -8 -9 -31 -16 -49 -16 -58 0 -86 69
-45 110 24 24 67 26 92 3z"/>
<path d="M1690 1862 c-35 -35 -40 -45 -40 -85 0 -37 6 -53 31 -81 16 -19 38
-37 47 -40 15 -5 16 -18 12 -114 -3 -71 -10 -115 -19 -125 -19 -24 -85 -39
-149 -35 l-55 3 -1 -33 -1 -32 78 0 c94 0 145 22 181 78 20 31 25 55 31 147 4
70 11 111 18 114 7 2 27 19 45 38 26 28 32 42 32 79 0 36 -6 51 -33 80 -28 31
-41 37 -85 42 -50 4 -53 3 -92 -36z m128 -38 c27 -18 30 -69 5 -96 -20 -22
-70 -23 -95 -1 -39 35 -8 113 45 113 12 0 33 -7 45 -16z"/>
<path d="M1041 1571 c-56 -15 -113 -62 -143 -120 -23 -44 -28 -66 -28 -127 0
-71 -1 -76 -32 -103 l-33 -29 -3 -200 c-4 -231 3 -273 51 -303 30 -18 48 -19
285 -17 l254 3 29 33 29 32 0 215 c0 226 -4 252 -47 280 -21 14 -23 23 -23 91
0 111 -39 183 -124 226 -45 23 -157 33 -215 19z m189 -71 c22 -11 51 -37 65
-57 21 -32 25 -49 25 -115 l0 -78 -195 0 -195 0 0 70 c0 72 20 131 54 159 52
43 181 54 246 21z m154 -332 c9 -34 7 -401 -2 -416 -8 -11 -138 -15 -473 -12
l-36 0 -7 170 c-3 93 -3 194 0 225 l7 55 252 0 253 0 6 -22z"/>
<path d="M1081 1063 c-23 -28 -20 -59 6 -80 11 -8 14 -29 12 -80 l-3 -68 32
-3 32 -3 0 73 c1 48 6 80 15 92 20 27 19 52 -5 76 -28 28 -64 25 -89 -7z"/>
<path d="M153 1230 c-109 -66 -63 -230 65 -230 41 0 50 5 89 45 l43 45 130 0
130 0 0 35 0 35 -130 0 -130 0 -43 45 c-37 38 -49 45 -83 45 -21 0 -53 -9 -71
-20z m109 -57 c22 -20 23 -70 1 -95 -36 -40 -113 -8 -113 47 0 54 71 85 112
48z"/>
<path d="M1956 1219 c-19 -16 -37 -38 -40 -47 -5 -15 -21 -17 -136 -14 l-130
3 0 -36 0 -36 130 3 c115 3 131 1 136 -14 3 -9 21 -31 40 -47 28 -25 44 -31
81 -31 39 0 50 5 84 39 32 32 39 46 39 77 0 51 -18 83 -59 111 -50 33 -102 31
-145 -8z m126 -46 c22 -20 23 -61 2 -91 -18 -27 -69 -30 -96 -5 -22 20 -23 70
-1 95 20 22 70 23 95 1z"/>
<path d="M670 1125 c0 -33 2 -35 35 -35 33 0 35 2 35 35 0 33 -2 35 -35 35
-33 0 -35 -2 -35 -35z"/>
<path d="M1515 1125 c0 -33 2 -35 33 -35 30 0 32 2 32 35 0 33 -2 35 -32 35
-31 0 -33 -2 -33 -35z"/>
<path d="M540 908 c-25 -13 -55 -38 -67 -57 -20 -30 -23 -47 -23 -142 0 -98
-2 -108 -19 -114 -11 -3 -34 -22 -50 -41 -71 -80 -8 -204 103 -204 31 0 45 7
77 39 34 34 39 44 39 87 0 43 -4 51 -45 91 l-45 43 0 100 c0 93 2 103 24 125
26 26 112 42 171 31 35 -7 35 -7 35 29 l0 35 -78 0 c-61 0 -87 -5 -122 -22z
m-18 -385 c22 -20 23 -70 1 -95 -35 -39 -113 -8 -113 45 0 58 69 89 112 50z"/>
<path d="M1515 901 l0 -29 88 -4 c123 -6 130 -14 137 -156 3 -67 1 -109 -5
-111 -5 -2 -27 -21 -47 -41 -30 -30 -38 -45 -38 -74 0 -99 96 -164 180 -121
46 24 70 62 70 113 0 41 -5 50 -45 89 l-45 43 0 90 c0 109 -19 155 -82 200
-38 28 -47 30 -127 30 l-86 0 0 -29z m307 -378 c38 -34 11 -113 -40 -113 -63
0 -96 67 -55 112 20 22 70 23 95 1z"/>
<path d="M864 581 c-17 -10 -39 -36 -48 -56 -15 -32 -16 -44 -7 -75 12 -40 55
-90 77 -90 11 0 14 -28 14 -135 l0 -135 33 0 32 0 -3 129 -3 130 29 15 c37 19
72 74 72 112 -1 94 -114 155 -196 105z m122 -66 c43 -65 -40 -141 -98 -88 -22
20 -24 76 -2 97 25 25 81 20 100 -9z"/>
<path d="M1254 581 c-31 -19 -64 -74 -64 -106 0 -31 43 -95 72 -107 l28 -13 0
-132 0 -133 30 0 30 0 0 129 0 129 34 21 c33 21 66 73 66 105 0 35 -30 86 -62
106 -41 25 -94 26 -134 1z m122 -66 c43 -65 -40 -141 -98 -88 -22 20 -24 76
-2 97 25 25 81 20 100 -9z"/>
</g>
</svg>
